# xmcd CD database file
#
# Track frame offsets:
#	150
#	18386
#	33699
#	40999
#	57042
#
# Disc length: 880 seconds
#
# Revision: 1
# Processed by: cddbd v1.5.1PL0 Copyright (c) Steve Scherf et al.
# Submitted via: CDex 1.51
#
DISCID=3a036e05
DTITLE=小島麻由美 - KOJIMA MAYUMI'S PAPER BACK demo e.p.
DYEAR=2005
DGENRE=Blues
TTITLE0=真夏の海
TTITLE1=セシルのブルース
TTITLE2=おしゃべり！おしゃべり！
TTITLE3=ディビ・ドゥビ・ダー
TTITLE4=結婚相談所
EXTD=YEAR: 2005
EXTT0=
EXTT1=
EXTT2=
EXTT3=
EXTT4=
PLAYORDER=
